<?xml version="1.0" encoding="UTF-8" standalone="no" ?>
<!DOCTYPE svg PUBLIC "-//W3C//DTD SVG 1.1//EN" "http://www.w3.org/Graphics/SVG/1.1/DTD/svg11.dtd">
<svg xmlns="http://www.w3.org/2000/svg" xmlns:xlink="http://www.w3.org/1999/xlink" version="1.1" width="49" height="49" viewBox="295.5 295.5 49 49" xml:space="preserve">
<desc>Created with Fabric.js 5.3.0</desc>
<defs>
</defs>
<g transform="matrix(1 0 0 1 320 320)" id="c06fUGDBIMqKCHaQD0BDF"  >
<path style="stroke: none; stroke-width: 1; stroke-dasharray: none; stroke-linecap: butt; stroke-dashoffset: 0; stroke-linejoin: miter; stroke-miterlimit: 4; fill: rgb(159,28,52); fill-rule: nonzero; opacity: 1;"  transform=" translate(-25, -25)" d="M 44 1.8 L 37.7 1.8 C 36.6 1.8 35.7 2.7 35.7 3.8 C 29.8 2.5 26.4 1 20.8 1 L 10.2 1 C 7.9 1 6 2.9 6 5.3 C 6 6.3 6.3 7.199999999999999 6.9 7.9 C 5.300000000000001 8.5 4.2 10.100000000000001 4.2 11.9 C 4.2 12.9 4.5 13.8 5.1000000000000005 14.5 C 3.5000000000000004 15.1 2.4000000000000004 16.7 2.4000000000000004 18.5 C 2.4000000000000004 19.5 2.8000000000000003 20.5 3.4000000000000004 21.3 C 1.9000000000000004 22.2 1.0000000000000004 23.7 1.0000000000000004 25.3 C 1.0000000000000004 27.7 2.9000000000000004 29.6 5.200000000000001 29.6 L 16.5 29.6 C 14.3 32.6 13.1 36.300000000000004 13.1 40 L 13.1 44.1 C 13.1 46.800000000000004 15.2 49 17.9 49 C 19.799999999999997 49 21.5 47.8 22.299999999999997 46 L 24.199999999999996 41.2 C 25.699999999999996 37.5 28.499999999999996 34.5 31.999999999999996 32.800000000000004 L 35.699999999999996 31.000000000000004 L 35.699999999999996 31.200000000000003 C 35.699999999999996 32.300000000000004 36.599999999999994 33.2 37.699999999999996 33.2 L 44 33.2 C 46.8 33.2 49 31.000000000000004 49 28.200000000000003 L 49 6.8 C 49 4.1 46.8 1.7999999999999998 44 1.7999999999999998 z M 31.1 31.1 C 27.1 33 24 36.4 22.3 40.5 L 20.400000000000002 45.3 C 20.000000000000004 46.3 19.000000000000004 47 17.900000000000002 47 C 16.400000000000002 47 15.100000000000001 45.7 15.100000000000001 44.1 L 15.100000000000001 40 C 15.100000000000001 36.7 16.200000000000003 33.4 18.1 30.7 L 19.200000000000003 29.2 C 19.427263235072335 28.896982353236893 19.463819205136 28.491570432772203 19.29442719099992 28.15278640450004 C 19.12503517686384 27.814002376227876 18.778772058453885 27.599999999999998 18.400000000000002 27.599999999999998 L 5.2 27.599999999999998 C 4 27.599999999999998 3 26.599999999999998 3 25.299999999999997 C 3 23.999999999999996 4 23 5.2 23 L 11.100000000000001 23 C 11.700000000000001 23 12.100000000000001 22.6 12.100000000000001 22 C 12.100000000000001 21.4 11.700000000000001 21 11.100000000000001 21 L 6.7 21 C 5.5 21 4.5 20 4.5 18.7 C 4.5 17.4 5.5 16.4 6.7 16.4 L 13 16.4 C 13.6 16.4 14 15.999999999999998 14 15.399999999999999 C 14 14.799999999999999 13.6 14.399999999999999 13 14.399999999999999 L 8.5 14.399999999999999 C 7.3 14.399999999999999 6.3 13.399999999999999 6.3 12.099999999999998 C 6.3 10.799999999999997 7.3 9.799999999999997 8.5 9.799999999999997 L 14.8 9.799999999999997 C 15.4 9.799999999999997 15.8 9.399999999999997 15.8 8.799999999999997 C 15.8 8.199999999999998 15.4 7.799999999999997 14.8 7.799999999999997 L 10.3 7.799999999999997 C 9 7.7 8 6.6 8 5.3 C 8 4 9 3 10.2 3 L 20.799999999999997 3 C 26.099999999999998 3 28.999999999999996 4.4 35.699999999999996 5.9 L 35.699999999999996 28.799999999999997 z M 47 28.3 C 47 30 45.7 31.3 44 31.3 L 37.7 31.3 L 37.7 3.8 L 44 3.8 C 45.7 3.8 47 5.1 47 6.8 z" stroke-linecap="round" />
</g>
</svg>