<?xml version="1.0" encoding="UTF-8" standalone="no" ?>
<!DOCTYPE svg PUBLIC "-//W3C//DTD SVG 1.1//EN" "http://www.w3.org/Graphics/SVG/1.1/DTD/svg11.dtd">
<svg xmlns="http://www.w3.org/2000/svg" xmlns:xlink="http://www.w3.org/1999/xlink" version="1.1" width="49.10000000000002" height="49.10000000000002" viewBox="295.45 295.45 49.10000000000002 49.10000000000002" xml:space="preserve">
<desc>Created with Fabric.js 5.3.0</desc>
<defs>
</defs>
<g transform="matrix(1 0 0 1 320 320)" id="wb3P71tyEnz2bvGNv59Uo"  >
<path style="stroke: none; stroke-width: 1; stroke-dasharray: none; stroke-linecap: butt; stroke-dashoffset: 0; stroke-linejoin: miter; stroke-miterlimit: 4; fill: rgb(159,28,52); fill-rule: nonzero; opacity: 1;"  transform=" translate(0, 0)" d="M 19.75 -4.65 L 8.45 -4.65 C 12.85 -10.75 11.549999999999999 -16.85 11.75 -19.05 L 11.75 -19.150000000000002 C 11.75 -21.85 9.65 -24.050000000000004 6.95 -24.050000000000004 C 3.6500000000000004 -24.050000000000004 2.55 -21.250000000000004 1.4500000000000002 -18.350000000000005 C 0.15000000000000013 -14.950000000000005 -1.5499999999999998 -10.650000000000006 -7.1499999999999995 -7.950000000000005 L -10.75 -6.050000000000004 L -10.75 -6.250000000000004 C -10.75 -7.350000000000005 -11.65 -8.250000000000004 -12.75 -8.250000000000004 L -19.05 -8.250000000000004 C -21.85 -8.250000000000004 -24.05 -6.050000000000003 -24.05 -3.2500000000000036 L -24.05 18.249999999999996 C -24.05 21.049999999999997 -21.85 23.249999999999996 -19.05 23.249999999999996 L -12.75 23.249999999999996 C -11.65 23.249999999999996 -10.75 22.349999999999998 -10.75 21.249999999999996 L -10.75 21.149999999999995 C -9.05 21.549999999999994 -7.65 21.949999999999996 -6.35 22.249999999999996 C -2.55 23.249999999999996 0.25 24.049999999999997 4.25 24.049999999999997 L 14.85 24.049999999999997 C 17.15 24.049999999999997 19.05 22.15 19.05 19.749999999999996 C 19.05 18.749999999999996 18.75 17.849999999999998 18.150000000000002 17.149999999999995 C 19.750000000000004 16.549999999999994 20.85 14.949999999999996 20.85 13.149999999999995 C 20.85 12.149999999999995 20.55 11.249999999999995 19.950000000000003 10.549999999999995 C 21.550000000000004 9.949999999999996 22.650000000000002 8.349999999999994 22.650000000000002 6.549999999999995 C 22.650000000000002 5.449999999999996 22.250000000000004 4.549999999999995 21.650000000000002 3.7499999999999956 C 23.05 3.0499999999999954 24.05 1.5499999999999954 24.05 -0.15000000000000435 C 23.95 -2.7500000000000044 22.05 -4.650000000000004 19.75 -4.650000000000004 z M -19.05 21.15 C -20.75 21.15 -22.05 19.849999999999998 -22.05 18.15 L -22.05 -3.3500000000000014 C -22.05 -5.050000000000002 -20.75 -6.350000000000001 -19.05 -6.350000000000001 L -12.75 -6.350000000000001 L -12.75 21.049999999999997 L -19.05 21.049999999999997 z M 19.75 1.95 L 13.85 1.95 C 13.25 1.95 12.85 2.35 12.85 2.95 C 12.85 3.5500000000000003 13.25 3.95 13.85 3.95 L 18.35 3.95 C 19.55 3.95 20.55 4.95 20.55 6.25 C 20.55 7.55 19.55 8.55 18.35 8.55 L 12.05 8.55 C 11.450000000000001 8.55 11.05 8.950000000000001 11.05 9.55 C 11.05 10.15 11.450000000000001 10.55 12.05 10.55 L 16.55 10.55 C 17.75 10.55 18.75 11.55 18.75 12.850000000000001 C 18.75 14.150000000000002 17.75 15.150000000000002 16.55 15.150000000000002 L 10.25 15.150000000000002 C 9.65 15.150000000000002 9.25 15.550000000000002 9.25 16.150000000000002 C 9.25 17.85 11.75 16.950000000000003 14.75 17.150000000000002 C 15.95 17.150000000000002 16.95 18.150000000000002 16.95 19.450000000000003 C 16.95 20.750000000000004 15.95 21.950000000000003 14.75 21.950000000000003 L 4.15 21.950000000000003 C 0.35000000000000053 21.950000000000003 -2.1499999999999995 21.250000000000004 -5.949999999999999 20.250000000000004 C -7.35 19.850000000000005 -8.95 19.450000000000003 -10.85 18.950000000000003 L -10.85 -3.849999999999998 L -6.25 -6.049999999999998 C 0.04999999999999982 -9.149999999999999 1.9499999999999993 -14.049999999999997 3.3499999999999996 -17.549999999999997 C 4.55 -20.549999999999997 5.1499999999999995 -21.949999999999996 6.949999999999999 -21.949999999999996 C 8.45 -21.949999999999996 9.649999999999999 -20.649999999999995 9.75 -19.149999999999995 C 9.55 -16.649999999999995 10.75 -11.249999999999995 6.75 -5.749999999999995 L 5.65 -4.249999999999995 C 5.15 -3.6499999999999946 5.65 -2.6499999999999946 6.45 -2.6499999999999946 L 19.75 -2.6499999999999946 C 20.95 -2.6499999999999946 21.95 -1.6499999999999946 21.95 -0.34999999999999476 C 21.95 0.9500000000000053 20.95 1.950000000000005 19.75 1.950000000000005 z" stroke-linecap="round" />
</g>
</svg>